# xmcd
#
# Track frame offsets:
#        150
#        22055
#        47792
#        64155
#        84152
#        109727
#        125982
#        157494
#        174318
#        200398
#        220566
#        233216
#        260029
#
# Disc length: 4284 seconds
#
# Revision: 0
# Processed by: cddbd v1.5.1PL0 Copyright (c) Steve Scherf et al.
# Submitted via: ExactAudioCopy v0.95a4
#
DISCID=bd10ba0d
DTITLE=WAGON CHRIST - SORRY I MAKE YOU LUSH
DYEAR=2004
DGENRE=Trip-Hop
TTITLE0=Saddic Gladdic
TTITLE1=I'm Singing
TTITLE2=The Funnies
TTITLE3=Shadows
TTITLE4=Quadra Y Discos
TTITLE5=UBFormby
TTITLE6=Sci Fi Staircase
TTITLE7=Sorry I Make You Lush
TTITLE8=Kwikwidetrax
TTITLE9=Nighty Night
TTITLE10=Deux Ans De MAIA
TTITLE11=Loose Loggins
TTITLE12=data
EXTD=
EXTT0=
EXTT1=
EXTT2=
EXTT3=
EXTT4=
EXTT5=
EXTT6=
EXTT7=
EXTT8=
EXTT9=
EXTT10=
EXTT11=
EXTT12=
PLAYORDER=
